# xmcd
#
# Track frame offsets: 
#        150
#        14334
#        27016
#        40919
#        54225
#        71202
#        85624
#        98868
#        114844
#        130371
#        140273
#        151657
#        168631
#        180506
#
# Disc length: 2573 seconds
#
# Revision: 0
# Processed by: cddbd v1.5.2PL0 Copyright (c) Steve Scherf et al.
# Submitted via: ExactAudioCopy v0.95b4
#
DISCID=a90a0b0e
DTITLE=Marty Daniels - A Little Bluer Than That
DYEAR=2006
DGENRE=Country
TTITLE0=The Right Places
TTITLE1=A Little Bluer Than That
TTITLE2=Guitars Cadillacs
TTITLE3=Under Your Spell Again
TTITLE4=Play Me The Waltz Of The Angels
TTITLE5=Wrapped Around
TTITLE6=Smoke Along The Track
TTITLE7=Adalida
TTITLE8=Your Old Love Letters
TTITLE9=I Don't Care
TTITLE10=Walk On By
TTITLE11=Livin On Love
TTITLE12=All You Really Need Is Love
TTITLE13=The Streets Of Bakersfield
EXTD=
EXTT0=
EXTT1=
EXTT2=
EXTT3=
EXTT4=
EXTT5=
EXTT6=
EXTT7=
EXTT8=
EXTT9=
EXTT10=
EXTT11=
EXTT12=
EXTT13=
PLAYORDER=
